# xmcd
#
# Track frame offsets:
#	182
#	12380
#	26590
#	44250
#	71235
#	87932
#	99532
#	129000
#	141067
#	166305
#	178157
#
# Disc length: 2582 seconds
#
# Revision: 3
# Processed by: cddbd v1.5.2PL0 Copyright (c) Steve Scherf et al.
# Submitted via: EasyCDDAExtractor 11.1.0.1
#
DISCID=8e0a140b
DTITLE=Bukka White - Memphis Hot Shots
DYEAR=1968
DGENRE=Blues
TTITLE0=Bed Spring Blues
TTITLE1=Aberdeen, Mississipi Blues
TTITLE2=Drifting Blues
TTITLE3=(Brand New) Decoration Blues
TTITLE4=Baby Please Don´t Go
TTITLE5=Give Me An Old, Old Lady
TTITLE6=Got Sick And Tired
TTITLE7=World Boogie
TTITLE8=School Learning
TTITLE9=Old Man Tom
TTITLE10=Gibson Town
EXTD=
EXTT0=
EXTT1=
EXTT2=
EXTT3=
EXTT4=
EXTT5=
EXTT6=
EXTT7=
EXTT8=
EXTT9=
EXTT10=
PLAYORDER=
